<?xml version="1.0" encoding="iso-8859-1"?>
<!-- Generator: Adobe Illustrator 18.0.0, SVG Export Plug-In . SVG Version: 6.00 Build 0)  -->
<!DOCTYPE svg PUBLIC "-//W3C//DTD SVG 1.1//EN" "http://www.w3.org/Graphics/SVG/1.1/DTD/svg11.dtd">
<svg xmlns="http://www.w3.org/2000/svg" xmlns:xlink="http://www.w3.org/1999/xlink" version="1.1" id="Capa_1" x="0px" y="0px" viewBox="0 0 483.46 483.46" style="enable-background:new 0 0 483.46 483.46;" xml:space="preserve" width="512px" height="512px">
<path d="M477.63,305.863c-6.432-5.332-47.395-39.192-79.628-64.129c32.233-24.935,73.196-58.795,79.628-64.128  c6.85-5.677,7.801-15.829,2.123-22.679c-5.668-6.849-15.837-7.816-22.679-2.122c-17.984,14.894-58.467,47.968-85.958,68.972  c-0.385-0.268-0.778-0.543-1.148-0.794c-25.454-20.824-94.395-70.058-177.231-70.058c-102.785,0-184.276,75.876-187.69,79.101  C1.824,233.069,0,237.307,0,241.734c0,4.427,1.824,8.666,5.041,11.71c3.42,3.224,84.911,79.108,187.696,79.108  c76.459,0,141.02-41.646,172.663-66.44c1.549-1.211,5.136-4.019,5.717-4.419c27.491,21.004,67.973,54.079,85.958,68.972  c3.012,2.493,6.653,3.704,10.27,3.704c4.632,0,9.225-1.989,12.409-5.827C485.432,321.692,484.48,311.54,477.63,305.863z   M192.737,300.342c-66.864,0-125.574-38.626-151.485-58.631c25.849-20.005,84.4-58.576,151.485-58.576  c65.816,0,124.685,38.354,151.201,58.6C318.937,260.753,258.969,300.342,192.737,300.342z" fill="#1155a8"/>
<g>
</g>
<g>
</g>
<g>
</g>
<g>
</g>
<g>
</g>
<g>
</g>
<g>
</g>
<g>
</g>
<g>
</g>
<g>
</g>
<g>
</g>
<g>
</g>
<g>
</g>
<g>
</g>
<g>
</g>
</svg>
